<svg
  xmlns="http://www.w3.org/2000/svg"
  width="32"
  height="32"
  fill="none"
  viewBox="3 4 30 32"
  preserveAspectRatio="xMidYMid meet"
>
  <path
    fill="#fff"
    fill-rule="evenodd"
    d="M30.846 16.923C30.846 9.786 25.06 4 17.923 4 10.786 4 5 9.786 5 16.923c0 1.767.355 3.45.996 4.985 2.663 7.269 11.995 12.246 11.995 12.246s11.464-6.114 12.605-14.686c.164-.823.25-1.674.25-2.545Z"
    clip-rule="evenodd"
  />
  <path
    fill="#171717"
    d="M28.385 16.923c0-5.778-4.684-10.461-10.462-10.461S7.462 11.145 7.462 16.923c0 5.778 4.683 10.462 10.461 10.462 5.778 0 10.462-4.684 10.462-10.462Z"
  />
  <path
    stroke="#fff"
    stroke-linecap="round"
    stroke-linejoin="round"
    stroke-width="1.5"
    d="M17.995 17.6h.825c1.5 0 1.5-1.2 3-1.2.78 0 1.5.6 1.5.6m-4.5 4.2c1.5 0 1.5-1.2 3-1.2.78 0 1.14.3 1.5.6m-10.8-4.8h2.4m-2.4 2.4h2.4m-2.4 2.4h2.4m-2.4-7.2h2.4m.6-1.8a.6.6 0 0 0-.6.6v9.6a.6.6 0 0 0 .6.6h2.4a.6.6 0 0 0 .6-.6l-.6-4.8-.6-4.8a.6.6 0 0 0-.6-.6h-1.2Z"
  />
</svg>
